# xmcd CD database file
#
# Track frame offsets:
#	150
#	44182
#	66930
#	99052
#	121652
#	146015
#	176265
#	200377
#	231535
#	262200
#
# Disc length: 3785 seconds
#
# Revision: 6
# Processed by: cddbd v1.5.2PL0 Copyright (c) Steve Scherf et al.
# Submitted via: CDex 1.51
#
DISCID=920ec70a
DTITLE=Brad Mehldau Trio - Anything Goes
DYEAR=2004
DGENRE=Jazz
TTITLE0=Get Happy
TTITLE1=Dreamsville
TTITLE2=Anything Goes
TTITLE3=Tres Palabras 
TTITLE4=Skippy
TTITLE5=Nearness of You
TTITLE6=Still Crazy After All These Years
TTITLE7=Everything in Its Right Place
TTITLE8=Smile
TTITLE9=I've Grown Accustomed To Her Face 
EXTD=YEAR: 2004
EXTT0=
EXTT1=
EXTT2=
EXTT3=
EXTT4=
EXTT5=
EXTT6=
EXTT7=
EXTT8=
EXTT9=
PLAYORDER=
